<?xml version="1.0" standalone="no"?>
<!DOCTYPE svg PUBLIC "-//W3C//DTD SVG 20010904//EN"
 "http://www.w3.org/TR/2001/REC-SVG-20010904/DTD/svg10.dtd">
<svg version="1.0" xmlns="http://www.w3.org/2000/svg"
 width="954.000000pt" height="1458.000000pt" viewBox="0 0 954.000000 1458.000000"
 preserveAspectRatio="xMidYMid meet">

<g transform="translate(0.000000,1458.000000) scale(0.100000,-0.100000)"
fill="#000000" stroke="none">
<path d="M4142 14558 c-9 -9 -12 -386 -12 -1634 l0 -1622 -22 -6 c-13 -3 -45
-6 -71 -6 -26 0 -64 -7 -84 -15 -19 -8 -54 -15 -77 -15 -22 -1 -52 -7 -66 -15
-14 -8 -41 -15 -60 -15 -19 0 -46 -7 -60 -15 -14 -8 -41 -15 -60 -15 -19 0
-44 -7 -54 -15 -11 -8 -34 -15 -50 -15 -17 0 -40 -7 -50 -15 -11 -8 -32 -15
-46 -15 -14 0 -35 -7 -46 -15 -10 -8 -31 -15 -45 -15 -15 0 -32 -7 -39 -15 -7
-8 -25 -15 -40 -15 -15 0 -33 -7 -40 -15 -7 -8 -25 -15 -40 -15 -15 0 -33 -7
-40 -15 -7 -8 -23 -15 -35 -15 -12 0 -28 -7 -35 -15 -7 -8 -23 -15 -35 -15
-12 0 -28 -7 -35 -15 -7 -8 -20 -15 -30 -15 -10 0 -23 -7 -30 -15 -7 -8 -23
-15 -37 -15 -13 0 -26 -7 -29 -15 -4 -8 -17 -15 -30 -15 -14 0 -27 -7 -30 -15
-4 -8 -14 -15 -24 -15 -10 0 -25 -7 -34 -15 -8 -8 -21 -15 -30 -15 -8 0 -18
-4 -21 -10 -3 -5 -30 -21 -58 -36 -29 -14 -65 -34 -82 -44 -60 -38 -80 -50
-97 -56 -10 -3 -18 -10 -18 -15 0 -5 -10 -14 -22 -19 -29 -13 -54 -28 -99 -62
-20 -16 -41 -28 -47 -28 -5 0 -12 -7 -16 -15 -3 -8 -11 -15 -18 -15 -8 0 -28
-13 -46 -30 -18 -16 -37 -30 -42 -30 -4 0 -10 -7 -14 -15 -3 -8 -11 -15 -18
-15 -8 0 -28 -13 -46 -30 -18 -16 -37 -30 -43 -30 -5 0 -9 -3 -9 -7 0 -5 -28
-30 -62 -58 -35 -27 -78 -65 -96 -82 -18 -18 -37 -33 -42 -33 -6 0 -10 -7 -10
-15 0 -8 -7 -15 -15 -15 -8 0 -15 -7 -15 -15 0 -8 -4 -15 -9 -15 -13 0 -171
-158 -171 -171 0 -5 -7 -9 -15 -9 -8 0 -15 -4 -15 -10 0 -5 -21 -31 -48 -57
-26 -26 -63 -69 -81 -95 -19 -27 -38 -48 -43 -48 -4 0 -8 -7 -8 -15 0 -8 -4
-15 -8 -15 -5 0 -28 -27 -52 -60 -24 -33 -47 -60 -52 -60 -4 0 -8 -5 -8 -11 0
-6 -13 -28 -30 -49 -16 -21 -30 -42 -30 -48 0 -5 -6 -12 -13 -15 -7 -2 -22
-23 -32 -46 -11 -22 -23 -41 -28 -41 -4 0 -12 -10 -17 -22 -15 -34 -33 -62
-47 -71 -7 -4 -13 -17 -13 -28 0 -11 -7 -22 -15 -25 -8 -4 -15 -12 -15 -19 0
-7 -7 -18 -15 -25 -8 -7 -15 -21 -15 -31 0 -11 -4 -19 -10 -19 -5 0 -12 -11
-16 -25 -3 -13 -12 -29 -20 -36 -8 -6 -14 -20 -14 -31 0 -10 -7 -21 -15 -24
-8 -4 -15 -14 -15 -24 0 -10 -7 -23 -15 -30 -8 -7 -15 -20 -15 -30 0 -10 -7
-23 -15 -30 -8 -7 -15 -23 -15 -37 0 -13 -7 -26 -15 -29 -8 -4 -15 -16 -15
-29 0 -12 -7 -28 -15 -35 -8 -7 -15 -23 -15 -35 0 -12 -7 -28 -15 -35 -8 -7
-15 -23 -15 -35 0 -12 -7 -28 -15 -35 -8 -7 -15 -25 -15 -40 0 -15 -7 -33 -15
-40 -8 -7 -15 -22 -15 -34 0 -12 -7 -31 -15 -42 -8 -10 -15 -30 -15 -44 0 -14
-7 -34 -15 -44 -8 -11 -15 -32 -15 -46 0 -14 -7 -35 -15 -46 -8 -10 -15 -33
-15 -50 0 -16 -7 -39 -15 -50 -8 -10 -15 -35 -15 -54 0 -19 -7 -46 -15 -60 -8
-14 -15 -41 -15 -60 0 -19 -7 -46 -15 -60 -8 -14 -14 -44 -15 -68 0 -23 -7
-59 -15 -79 -8 -19 -15 -57 -15 -83 0 -26 -7 -67 -15 -90 -8 -23 -15 -75 -15
-114 0 -39 -7 -103 -15 -141 -21 -100 -21 -690 0 -790 8 -38 15 -102 15 -141
0 -39 7 -91 15 -114 8 -23 15 -64 15 -90 0 -26 7 -64 15 -83 8 -20 15 -56 15
-79 1 -24 7 -54 15 -68 8 -14 15 -41 15 -60 0 -19 7 -46 15 -60 8 -14 15 -41
15 -60 0 -19 7 -44 15 -54 8 -11 15 -34 15 -50 0 -17 7 -40 15 -50 8 -11 15
-32 15 -46 0 -14 7 -35 15 -46 8 -10 15 -30 15 -44 0 -14 7 -34 15 -44 8 -11
15 -30 15 -42 0 -12 7 -27 15 -34 8 -7 15 -25 15 -40 0 -15 7 -33 15 -40 8 -7
15 -23 15 -35 0 -12 7 -28 15 -35 8 -7 15 -23 15 -35 0 -12 7 -28 15 -35 8 -7
15 -23 15 -35 0 -13 7 -25 15 -29 8 -3 15 -16 15 -29 0 -14 7 -30 15 -37 8 -7
15 -20 15 -30 0 -10 7 -23 15 -30 8 -7 15 -20 15 -30 0 -10 7 -20 15 -24 8 -3
15 -14 15 -24 0 -11 6 -25 14 -31 8 -7 17 -23 20 -36 4 -14 11 -25 16 -25 6 0
10 -8 10 -19 0 -10 7 -24 15 -31 8 -7 15 -18 15 -25 0 -7 7 -15 15 -19 8 -3
15 -14 15 -25 0 -11 6 -24 13 -28 14 -9 32 -37 47 -70 5 -13 13 -23 17 -23 5
0 17 -19 28 -41 10 -23 25 -44 32 -46 7 -3 13 -10 13 -15 0 -6 13 -27 30 -48
16 -21 30 -43 30 -49 0 -6 4 -11 8 -11 9 0 76 -88 85 -113 4 -11 -1 -25 -13
-37 -11 -11 -20 -22 -20 -25 0 -2 -15 -19 -33 -37 -18 -18 -48 -54 -66 -80
-19 -27 -38 -48 -43 -48 -4 0 -8 -4 -8 -10 0 -5 -15 -24 -33 -42 -18 -18 -48
-54 -66 -80 -19 -27 -38 -48 -43 -48 -4 0 -8 -7 -8 -15 0 -8 -7 -15 -15 -15
-8 0 -15 -7 -15 -15 0 -8 -4 -15 -8 -15 -5 0 -28 -27 -52 -60 -24 -33 -47 -60
-52 -60 -4 0 -8 -7 -8 -15 0 -8 -7 -15 -15 -15 -8 0 -15 -7 -15 -15 0 -8 -4
-15 -8 -15 -5 0 -24 -21 -43 -47 -18 -27 -48 -63 -66 -81 -18 -18 -33 -35 -33
-37 0 -3 -8 -13 -17 -23 -10 -10 -36 -40 -58 -67 -22 -27 -48 -57 -57 -67 -10
-10 -18 -20 -18 -23 0 -2 -15 -19 -33 -37 -18 -18 -48 -54 -66 -80 -19 -27
-38 -48 -43 -48 -4 0 -8 -4 -8 -10 0 -5 -15 -24 -33 -42 -18 -18 -48 -54 -66
-80 -19 -27 -38 -48 -43 -48 -4 0 -8 -7 -8 -15 0 -8 -7 -15 -15 -15 -8 0 -15
-7 -15 -15 0 -8 -4 -15 -8 -15 -5 0 -28 -27 -52 -60 -24 -33 -47 -60 -52 -60
-4 0 -8 -7 -8 -15 0 -8 -7 -15 -15 -15 -8 0 -15 -7 -15 -15 0 -8 -4 -15 -8
-15 -5 0 -22 -19 -39 -43 -38 -53 -32 -70 48 -128 33 -23 59 -46 59 -51 0 -4
7 -8 15 -8 8 0 15 -7 15 -15 0 -8 7 -15 15 -15 8 0 15 -4 15 -8 0 -5 27 -28
60 -52 33 -24 60 -47 60 -52 0 -4 7 -8 15 -8 8 0 15 -7 15 -15 0 -8 7 -15 15
-15 8 0 15 -4 15 -8 0 -5 21 -24 48 -43 26 -18 62 -48 80 -66 18 -18 37 -33
42 -33 6 0 10 -3 10 -7 0 -5 34 -35 75 -68 41 -33 75 -63 75 -67 0 -5 4 -8 10
-8 5 0 24 -15 42 -33 18 -18 54 -48 80 -66 27 -19 48 -38 48 -43 0 -4 4 -8 10
-8 5 0 24 -15 42 -33 18 -18 54 -48 80 -66 27 -19 48 -38 48 -43 0 -4 7 -8 15
-8 8 0 15 -7 15 -15 0 -8 7 -15 15 -15 8 0 15 -4 15 -8 0 -5 21 -24 47 -43 26
-18 55 -41 65 -51 18 -18 29 -21 66 -19 12 0 22 7 22 16 0 8 4 15 8 15 5 0 28
27 52 60 24 33 47 60 52 60 4 0 8 7 8 15 0 8 7 15 15 15 8 0 15 7 15 15 0 8 4
15 8 15 5 0 24 21 43 48 18 26 48 62 66 80 18 18 33 35 33 37 0 3 8 13 18 23
9 10 35 40 57 67 22 27 48 57 58 67 9 10 17 20 17 23 0 2 15 19 33 37 18 18
48 54 66 81 19 26 38 47 43 47 4 0 8 7 8 15 0 8 7 15 15 15 8 0 15 7 15 15 0
8 4 15 8 15 5 0 28 27 52 60 24 33 47 60 52 60 4 0 8 7 8 15 0 8 7 15 15 15 8
0 15 7 15 15 0 8 4 15 8 15 5 0 24 21 43 48 18 26 48 62 66 80 18 18 33 37 33
42 0 6 4 10 8 10 4 0 25 24 47 53 21 28 52 64 67 79 15 15 28 29 28 32 0 3 15
20 33 38 18 18 48 54 66 81 19 26 38 47 43 47 4 0 8 5 8 11 0 5 13 22 28 37
24 22 43 47 99 121 2 3 9 -1 15 -7 7 -7 18 -12 26 -12 7 0 20 -7 28 -15 9 -8
24 -15 34 -15 10 0 20 -7 24 -15 3 -8 16 -15 30 -15 13 0 26 -7 30 -15 3 -8
16 -15 29 -15 14 0 30 -7 37 -15 7 -8 20 -15 30 -15 10 0 23 -7 30 -15 7 -8
23 -15 35 -15 12 0 28 -7 35 -15 7 -8 22 -15 34 -15 11 0 30 -7 40 -15 11 -8
30 -15 42 -15 12 0 27 -7 34 -15 7 -8 25 -15 40 -15 15 0 33 -7 40 -15 7 -8
24 -15 39 -15 14 0 35 -7 45 -15 11 -8 32 -15 46 -15 14 0 35 -7 46 -15 10 -8
33 -15 50 -15 16 0 39 -7 50 -15 10 -8 30 -15 44 -15 l25 0 0 -1410 c0 -1243
2 -1412 15 -1420 20 -13 2200 -13 2220 0 13 8 15 177 15 1420 l0 1410 25 0
c14 0 34 7 44 15 11 8 34 15 50 15 17 0 40 7 50 15 11 8 32 15 46 15 14 0 35
7 46 15 10 8 31 15 45 15 15 0 32 7 39 15 7 8 25 15 40 15 15 0 33 7 40 15 7
8 22 15 34 15 12 0 31 7 42 15 10 8 29 15 40 15 12 0 27 7 34 15 7 8 21 15 32
15 11 0 26 7 34 15 9 8 24 15 33 15 10 0 24 7 31 15 7 8 23 15 37 15 13 0 26
7 29 15 4 8 17 15 30 15 14 0 27 7 30 15 4 8 14 15 24 15 10 0 25 7 34 15 8 8
21 15 28 15 8 0 19 5 26 12 6 6 13 10 15 7 56 -74 75 -99 99 -121 15 -15 28
-32 28 -37 0 -6 4 -11 8 -11 5 0 24 -21 43 -47 18 -27 48 -63 66 -81 18 -18
33 -35 33 -38 0 -3 13 -17 28 -32 15 -15 46 -51 67 -79 22 -29 43 -53 47 -53
4 0 8 -4 8 -10 0 -5 15 -24 33 -42 18 -18 48 -54 66 -80 19 -27 38 -48 43 -48
4 0 8 -7 8 -15 0 -8 7 -15 15 -15 8 0 15 -7 15 -15 0 -8 4 -15 8 -15 5 0 28
-27 52 -60 24 -33 47 -60 52 -60 4 0 8 -7 8 -15 0 -8 7 -15 15 -15 8 0 15 -7
15 -15 0 -8 4 -15 8 -15 5 0 24 -21 43 -47 18 -27 48 -63 66 -81 18 -18 33
-37 33 -42 0 -6 4 -10 8 -10 5 0 23 -19 40 -42 17 -24 47 -60 66 -81 20 -21
36 -40 36 -42 0 -2 15 -19 33 -37 18 -18 48 -54 66 -80 19 -27 38 -48 43 -48
4 0 8 -7 8 -15 0 -8 7 -15 15 -15 8 0 15 -7 15 -15 0 -8 4 -15 8 -15 5 0 28
-27 52 -60 24 -33 47 -60 52 -60 4 0 8 -7 8 -15 0 -9 10 -16 23 -16 36 -2 47
1 65 19 10 10 39 33 65 51 26 19 47 38 47 43 0 4 7 8 15 8 8 0 15 7 15 15 0 8
7 15 15 15 8 0 15 4 15 8 0 5 21 24 48 43 26 18 62 48 80 66 18 18 37 33 42
33 6 0 10 4 10 8 0 5 21 24 48 43 26 18 62 48 80 66 18 18 35 33 38 33 3 0 17
13 32 28 15 15 51 46 80 67 28 22 52 43 52 47 0 4 7 8 15 8 8 0 15 7 15 15 0
8 7 15 15 15 8 0 15 4 15 8 0 5 27 28 60 52 33 24 60 47 60 52 0 4 7 8 15 8 8
0 15 7 15 15 0 8 7 15 15 15 8 0 15 4 15 8 0 5 21 24 48 43 26 18 62 48 80 66
18 18 37 33 42 33 6 0 10 4 10 8 0 5 26 28 59 51 80 58 86 75 48 129 -17 23
-34 42 -39 42 -4 0 -8 7 -8 15 0 8 -7 15 -15 15 -8 0 -15 7 -15 15 0 8 -4 15
-8 15 -5 0 -28 27 -52 60 -24 33 -47 60 -52 60 -4 0 -8 7 -8 15 0 8 -7 15 -15
15 -8 0 -15 7 -15 15 0 8 -4 15 -8 15 -5 0 -24 21 -43 48 -18 26 -48 62 -66
80 -18 18 -33 37 -33 42 0 6 -4 10 -8 10 -5 0 -24 21 -43 48 -18 26 -48 62
-66 80 -18 18 -33 35 -33 37 0 3 -8 13 -17 23 -10 10 -36 40 -58 67 -22 27
-48 57 -57 67 -10 10 -18 20 -18 23 0 2 -15 19 -33 37 -18 18 -48 54 -66 81
-19 26 -38 47 -43 47 -4 0 -8 7 -8 15 0 8 -7 15 -15 15 -8 0 -15 7 -15 15 0 8
-4 15 -8 15 -5 0 -28 27 -52 60 -24 33 -47 60 -52 60 -4 0 -8 7 -8 15 0 8 -7
15 -15 15 -8 0 -15 7 -15 15 0 8 -4 15 -8 15 -5 0 -24 21 -43 48 -18 26 -48
62 -66 80 -18 18 -33 37 -33 42 0 6 -4 10 -8 10 -5 0 -23 19 -40 43 -17 23
-47 59 -66 80 -20 21 -36 40 -36 43 0 2 -9 13 -20 24 -12 12 -17 26 -13 37 9
25 76 113 85 113 4 0 8 5 8 11 0 6 14 28 30 49 17 21 30 42 30 48 0 5 6 12 13
15 7 2 22 23 32 46 11 22 23 41 28 41 4 0 12 10 17 23 15 33 33 61 48 70 6 4
12 17 12 28 0 11 6 22 14 25 8 3 17 16 20 30 4 13 11 24 16 24 6 0 10 8 10 19
0 10 7 24 15 31 8 7 15 18 15 25 0 7 7 18 15 25 8 7 15 21 15 32 0 10 7 21 15
24 8 4 15 14 15 24 0 10 6 25 13 32 8 7 17 26 21 41 3 15 11 27 16 27 6 0 10
11 10 25 0 14 7 28 15 31 8 4 15 16 15 29 0 12 7 28 15 35 8 7 15 23 15 35 0
12 7 28 15 35 8 7 15 23 15 35 0 12 7 28 15 35 8 7 15 25 15 40 0 15 7 33 15
40 8 7 15 22 15 34 0 12 7 31 15 42 8 10 15 31 15 45 0 14 7 34 15 45 8 10 15
31 15 45 0 14 7 34 15 45 8 10 15 33 15 50 0 16 7 39 15 50 8 10 15 35 15 54
0 19 7 46 15 60 8 14 15 41 15 60 0 19 7 46 15 60 8 14 14 44 15 68 0 23 7 59
15 79 8 19 15 59 15 87 1 28 7 69 15 91 8 22 15 74 15 115 0 41 7 104 15 140
20 93 20 687 0 780 -8 36 -14 99 -15 141 0 42 -7 96 -15 119 -8 23 -15 64 -15
90 0 26 -7 64 -15 83 -8 20 -15 56 -15 79 -1 24 -7 54 -15 68 -8 14 -15 41
-15 60 0 19 -7 46 -15 60 -8 14 -15 41 -15 60 0 19 -7 44 -15 54 -8 11 -15 34
-15 50 0 17 -7 40 -15 50 -8 11 -15 31 -15 45 0 14 -7 35 -15 45 -8 11 -15 31
-15 45 0 14 -7 35 -15 45 -8 11 -15 30 -15 42 0 12 -7 27 -15 34 -8 7 -15 25
-15 40 0 15 -7 33 -15 40 -8 7 -15 23 -15 35 0 12 -7 28 -15 35 -8 7 -15 23
-15 35 0 12 -7 28 -15 35 -8 7 -15 23 -15 35 0 13 -7 25 -15 29 -8 3 -15 17
-15 31 0 14 -4 25 -10 25 -5 0 -13 12 -16 27 -4 15 -13 34 -21 41 -7 7 -13 22
-13 32 0 10 -7 20 -15 24 -8 3 -15 14 -15 24 0 11 -7 25 -15 32 -8 7 -15 18
-15 25 0 7 -7 18 -15 25 -8 7 -15 21 -15 31 0 11 -4 19 -10 19 -5 0 -12 11
-16 24 -3 14 -12 27 -20 30 -8 3 -14 14 -14 25 0 11 -6 24 -12 28 -15 9 -33
37 -48 71 -5 12 -13 22 -17 22 -5 0 -17 19 -28 41 -10 23 -25 44 -32 46 -7 3
-13 10 -13 15 0 6 -13 27 -30 48 -16 21 -30 43 -30 49 0 6 -4 11 -8 11 -5 0
-28 27 -52 60 -24 33 -47 60 -52 60 -4 0 -8 7 -8 15 0 8 -4 15 -8 15 -5 0 -24
21 -43 48 -18 26 -55 69 -81 95 -27 26 -48 52 -48 57 0 6 -7 10 -15 10 -8 0
-15 7 -15 15 0 8 -7 15 -15 15 -8 0 -15 4 -15 9 0 13 -128 141 -141 141 -5 0
-9 7 -9 15 0 8 -7 15 -15 15 -8 0 -15 7 -15 15 0 8 -5 15 -11 15 -5 0 -22 13
-37 29 -15 16 -49 45 -77 66 -27 21 -60 48 -72 61 -12 13 -24 24 -27 24 -3 0
-20 14 -38 30 -18 17 -38 30 -46 30 -7 0 -15 7 -18 15 -4 8 -10 15 -14 15 -5
0 -24 14 -42 30 -18 17 -38 30 -46 30 -7 0 -15 7 -18 15 -4 8 -11 15 -16 15
-6 0 -27 12 -47 28 -45 34 -70 49 -98 62 -13 5 -23 14 -23 20 0 5 -6 10 -14
10 -7 0 -19 7 -26 15 -7 8 -21 15 -31 15 -11 0 -19 4 -19 9 0 10 -35 32 -82
52 -16 6 -28 15 -28 20 0 5 -8 9 -19 9 -10 0 -24 7 -31 15 -7 8 -19 15 -27 15
-8 0 -21 7 -29 15 -9 8 -24 15 -34 15 -10 0 -20 7 -24 15 -3 8 -16 15 -30 15
-13 0 -26 7 -30 15 -3 8 -16 15 -29 15 -14 0 -30 7 -37 15 -7 8 -20 15 -30 15
-10 0 -23 7 -30 15 -7 8 -23 15 -35 15 -12 0 -28 7 -35 15 -7 8 -23 15 -35 15
-12 0 -28 7 -35 15 -7 8 -25 15 -40 15 -15 0 -33 7 -40 15 -7 8 -25 15 -40 15
-15 0 -33 7 -40 15 -7 8 -24 15 -39 15 -14 0 -35 7 -45 15 -11 8 -32 15 -46
15 -14 0 -35 7 -46 15 -10 8 -33 15 -50 15 -16 0 -39 7 -50 15 -10 8 -35 15
-54 15 -19 0 -46 7 -60 15 -14 8 -41 15 -60 15 -19 0 -46 7 -60 15 -14 8 -44
14 -66 15 -23 0 -58 7 -77 15 -20 8 -58 15 -84 15 -26 0 -58 3 -70 6 l-23 6 0
1622 c0 1248 -3 1625 -12 1634 -17 17 -1239 17 -1256 0z m958 -3813 c36 -8 97
-14 136 -15 39 0 91 -7 114 -15 23 -8 66 -15 94 -15 28 -1 62 -7 76 -15 14 -8
43 -15 65 -15 22 0 51 -7 65 -15 14 -8 41 -14 61 -15 19 0 44 -7 55 -15 10 -8
35 -15 54 -15 19 0 44 -7 54 -15 11 -8 31 -15 45 -15 14 0 35 -7 45 -15 11 -8
32 -15 47 -15 14 0 32 -7 39 -15 7 -8 25 -15 40 -15 15 0 33 -7 40 -15 7 -8
25 -15 41 -15 16 0 29 -4 29 -10 0 -5 18 -14 40 -20 21 -6 42 -15 45 -20 3 -6
14 -10 24 -10 10 0 24 -7 31 -15 7 -8 23 -15 37 -15 13 0 26 -7 29 -15 4 -8
17 -15 30 -15 14 0 27 -7 30 -15 4 -8 17 -15 30 -15 14 0 27 -7 30 -15 4 -8
14 -15 24 -15 10 0 23 -7 30 -15 7 -8 18 -15 25 -15 7 0 18 -7 25 -15 7 -8 20
-15 30 -15 10 0 20 -7 24 -15 3 -8 14 -15 25 -15 11 0 24 -6 28 -12 9 -15 37
-33 71 -48 12 -5 22 -14 22 -19 0 -5 8 -12 18 -15 34 -13 72 -37 72 -47 0 -5
5 -9 11 -9 6 0 28 -13 49 -30 21 -16 43 -30 49 -30 6 0 11 -4 11 -8 0 -5 27
-28 60 -52 33 -24 60 -47 60 -52 0 -4 7 -8 15 -8 8 0 15 -7 15 -15 0 -8 4 -15
9 -15 29 0 441 -413 441 -441 0 -5 4 -9 8 -9 5 0 28 -27 52 -60 24 -33 47 -60
52 -60 4 0 8 -6 8 -14 0 -8 7 -16 15 -20 8 -3 15 -11 15 -18 0 -8 12 -27 28
-44 32 -37 49 -61 62 -91 5 -13 14 -23 19 -23 5 0 12 -8 15 -17 13 -35 37 -73
47 -73 5 0 9 -8 9 -19 0 -10 7 -24 15 -31 8 -7 15 -18 15 -25 0 -7 7 -18 15
-25 8 -7 15 -20 15 -30 0 -10 7 -20 15 -24 8 -3 15 -15 15 -26 0 -11 7 -23 15
-26 8 -4 15 -14 15 -24 0 -10 6 -25 13 -32 8 -7 17 -26 21 -41 3 -15 11 -27
16 -27 6 0 10 -11 10 -24 0 -13 7 -29 15 -36 8 -7 15 -23 15 -36 0 -13 4 -24
10 -24 5 0 13 -12 16 -27 4 -16 13 -37 20 -48 8 -11 14 -29 14 -41 0 -12 7
-27 15 -34 8 -7 15 -25 15 -40 0 -15 7 -33 15 -40 8 -7 15 -24 15 -39 0 -14 7
-35 15 -45 8 -11 15 -32 15 -46 0 -14 7 -35 15 -46 8 -10 15 -35 15 -54 0 -19
7 -44 15 -54 8 -11 15 -36 15 -55 1 -20 7 -47 15 -61 8 -14 14 -41 15 -61 0
-20 7 -53 15 -72 8 -20 15 -58 15 -85 0 -27 7 -66 15 -85 9 -21 15 -67 15
-109 0 -40 7 -105 15 -143 21 -99 21 -571 0 -670 -8 -38 -15 -103 -15 -143 0
-42 -6 -88 -15 -109 -8 -19 -15 -59 -15 -87 0 -28 -7 -64 -15 -80 -8 -15 -15
-47 -15 -70 -1 -22 -7 -52 -15 -66 -8 -14 -14 -41 -15 -61 0 -19 -7 -44 -15
-55 -8 -10 -15 -35 -15 -54 0 -19 -7 -44 -15 -54 -8 -11 -15 -32 -15 -46 0
-14 -7 -35 -15 -46 -8 -10 -15 -31 -15 -45 0 -15 -7 -32 -15 -39 -8 -7 -15
-25 -15 -40 0 -15 -7 -33 -15 -40 -8 -7 -15 -22 -15 -34 0 -12 -6 -30 -14 -41
-7 -11 -16 -32 -20 -47 -3 -16 -11 -28 -16 -28 -6 0 -10 -11 -10 -24 0 -13 -7
-29 -15 -36 -8 -7 -15 -23 -15 -36 0 -13 -4 -24 -10 -24 -5 0 -13 -12 -16 -27
-4 -15 -13 -34 -21 -41 -7 -7 -13 -22 -13 -32 0 -10 -7 -20 -15 -24 -8 -3 -15
-15 -15 -26 0 -11 -7 -23 -15 -26 -8 -4 -15 -14 -15 -24 0 -10 -7 -23 -15 -30
-8 -7 -15 -18 -15 -25 0 -7 -7 -18 -15 -25 -8 -7 -15 -21 -15 -31 0 -11 -4
-19 -9 -19 -10 0 -34 -38 -47 -72 -3 -10 -10 -18 -15 -18 -5 0 -14 -10 -19
-22 -13 -31 -30 -55 -62 -92 -16 -17 -28 -36 -28 -44 0 -7 -7 -15 -15 -18 -8
-4 -15 -12 -15 -20 0 -8 -4 -14 -8 -14 -5 0 -28 -27 -52 -60 -24 -33 -47 -60
-52 -60 -4 0 -8 -4 -8 -9 0 -28 -412 -441 -441 -441 -5 0 -9 -7 -9 -15 0 -8
-7 -15 -15 -15 -8 0 -15 -4 -15 -8 0 -5 -27 -28 -60 -52 -33 -24 -60 -47 -60
-52 0 -4 -5 -8 -11 -8 -6 0 -28 -14 -49 -30 -21 -17 -43 -30 -49 -30 -6 0 -11
-4 -11 -9 0 -10 -38 -34 -72 -47 -10 -3 -18 -10 -18 -15 0 -5 -10 -14 -22 -19
-34 -15 -62 -33 -71 -48 -4 -6 -17 -12 -28 -12 -11 0 -22 -7 -25 -15 -4 -8
-14 -15 -24 -15 -10 0 -23 -7 -30 -15 -7 -8 -18 -15 -25 -15 -7 0 -18 -7 -25
-15 -7 -8 -19 -15 -27 -15 -8 0 -21 -7 -29 -15 -9 -8 -24 -15 -34 -15 -10 0
-20 -7 -24 -15 -3 -8 -16 -15 -30 -15 -13 0 -26 -7 -30 -15 -3 -8 -16 -15 -29
-15 -14 0 -30 -7 -37 -15 -7 -8 -21 -15 -31 -15 -10 0 -21 -4 -24 -10 -3 -5
-24 -14 -45 -20 -22 -6 -40 -15 -40 -20 0 -6 -13 -10 -29 -10 -16 0 -34 -7
-41 -15 -7 -8 -25 -15 -40 -15 -15 0 -33 -7 -40 -15 -7 -8 -25 -15 -39 -15
-15 0 -36 -7 -47 -15 -10 -8 -31 -15 -45 -15 -14 0 -34 -7 -45 -15 -10 -8 -35
-15 -54 -15 -19 0 -44 -7 -54 -15 -11 -8 -36 -15 -55 -15 -20 -1 -47 -7 -61
-15 -14 -8 -43 -14 -65 -15 -22 0 -53 -7 -69 -15 -15 -8 -50 -15 -76 -15 -26
0 -67 -7 -90 -15 -23 -8 -77 -15 -119 -15 -42 -1 -103 -7 -136 -15 -85 -21
-565 -21 -650 0 -33 8 -94 14 -136 15 -42 0 -96 7 -119 15 -23 8 -64 15 -90
15 -26 0 -61 7 -76 15 -16 8 -47 15 -69 15 -22 1 -51 7 -65 15 -14 8 -41 14
-61 15 -19 0 -44 7 -55 15 -10 8 -35 15 -54 15 -19 0 -44 7 -54 15 -11 8 -31
15 -45 15 -14 0 -35 7 -45 15 -11 8 -32 15 -47 15 -14 0 -32 7 -39 15 -7 8
-25 15 -40 15 -15 0 -33 7 -40 15 -7 8 -25 15 -41 15 -16 0 -29 4 -29 10 0 5
-18 14 -40 20 -21 6 -42 15 -45 20 -3 6 -14 10 -24 10 -10 0 -24 7 -31 15 -7
8 -23 15 -37 15 -13 0 -26 7 -29 15 -4 8 -17 15 -30 15 -14 0 -27 7 -30 15 -4
8 -17 15 -30 15 -14 0 -27 7 -30 15 -4 8 -14 15 -24 15 -10 0 -23 7 -30 15 -7
8 -18 15 -25 15 -7 0 -18 7 -25 15 -7 8 -20 15 -30 15 -10 0 -20 7 -24 15 -3
8 -14 15 -25 15 -11 0 -24 6 -28 13 -9 14 -37 32 -70 47 -13 5 -23 14 -23 19
0 5 -8 12 -17 15 -35 13 -73 37 -73 47 0 5 -5 9 -11 9 -6 0 -28 13 -49 30 -21
16 -43 30 -49 30 -6 0 -11 4 -11 8 0 5 -27 28 -60 52 -33 24 -60 47 -60 52 0
4 -7 8 -15 8 -8 0 -15 7 -15 15 0 8 -4 15 -9 15 -29 0 -441 413 -441 441 0 5
-4 9 -8 9 -5 0 -28 27 -52 60 -24 33 -47 60 -52 60 -4 0 -8 6 -8 14 0 8 -7 16
-15 20 -8 3 -15 11 -15 18 0 8 -12 27 -28 44 -32 37 -49 61 -62 91 -5 13 -14
23 -19 23 -5 0 -12 8 -15 18 -13 34 -37 72 -47 72 -5 0 -9 8 -9 19 0 10 -7 24
-15 31 -8 7 -15 18 -15 25 0 7 -7 18 -15 25 -8 7 -15 20 -15 30 0 10 -7 20
-15 24 -8 3 -15 15 -15 26 0 11 -7 23 -15 26 -8 4 -15 14 -15 24 0 10 -6 25
-13 32 -8 7 -17 26 -21 41 -3 15 -11 27 -16 27 -6 0 -10 11 -10 24 0 13 -7 29
-15 36 -8 7 -15 23 -15 36 0 13 -4 24 -10 24 -5 0 -13 12 -16 28 -4 15 -13 36
-20 47 -8 11 -14 29 -14 41 0 12 -7 27 -15 34 -8 7 -15 25 -15 40 0 15 -7 33
-15 40 -8 7 -15 24 -15 39 0 14 -7 35 -15 45 -8 11 -15 32 -15 46 0 14 -7 35
-15 46 -8 10 -15 35 -15 54 0 19 -7 44 -15 54 -8 11 -15 36 -15 55 -1 20 -7
47 -15 61 -8 14 -14 41 -15 61 0 20 -7 53 -15 72 -8 20 -15 58 -15 85 0 27 -7
66 -15 85 -9 21 -15 67 -15 109 0 40 -7 105 -15 143 -21 99 -21 571 0 670 8
38 15 103 15 143 0 42 6 88 15 109 8 19 15 58 15 85 0 27 7 65 15 85 8 19 15
52 15 72 1 20 7 47 15 61 8 14 15 41 15 60 0 19 7 46 15 60 8 14 15 39 15 55
0 17 7 39 15 49 8 11 15 32 15 46 0 14 7 35 15 46 8 10 15 31 15 45 0 15 7 32
15 39 8 7 15 25 15 40 0 15 7 33 15 40 8 7 15 22 15 34 0 12 6 30 14 41 7 11
16 32 20 48 3 15 11 27 16 27 6 0 10 11 10 24 0 13 7 29 15 36 8 7 15 23 15
36 0 13 4 24 10 24 5 0 13 12 16 27 4 15 13 34 21 41 7 7 13 22 13 32 0 10 7
20 15 24 8 3 15 15 15 26 0 11 7 23 15 26 8 4 15 14 15 24 0 10 7 23 15 30 8
7 15 18 15 25 0 7 7 18 15 25 8 7 15 21 15 31 0 11 4 19 9 19 10 0 34 38 47
73 3 9 10 17 15 17 5 0 14 10 19 23 13 30 30 54 63 91 15 17 27 36 27 44 0 7
7 15 15 18 8 4 15 10 15 14 0 5 14 24 30 42 16 18 30 36 30 41 0 4 14 21 30
37 16 16 30 31 30 33 0 25 447 467 471 467 5 0 9 4 9 8 0 5 27 28 60 52 33 24
60 47 60 52 0 4 7 8 15 8 8 0 15 5 15 10 0 6 10 15 23 20 29 13 60 33 68 43 8
11 47 34 72 43 9 3 17 10 17 15 0 5 10 14 23 19 33 15 61 33 70 48 4 6 17 12
28 12 11 0 22 7 25 15 4 8 14 15 24 15 10 0 23 7 30 15 7 8 18 15 25 15 7 0
18 7 25 15 7 8 20 15 30 15 10 0 20 7 24 15 3 8 16 15 30 15 13 0 26 7 30 15
3 8 16 15 30 15 13 0 26 7 30 15 3 8 16 15 29 15 14 0 30 7 37 15 7 8 21 15
31 15 10 0 21 4 24 10 3 5 24 14 45 20 22 6 40 15 40 20 0 6 13 10 29 10 16 0
34 7 41 15 7 8 25 15 40 15 15 0 33 7 40 15 7 8 25 15 39 15 15 0 36 7 47 15
10 8 31 15 45 15 14 0 34 7 45 15 10 8 35 15 54 15 19 0 44 7 54 15 11 8 36
15 55 15 20 1 47 7 61 15 14 8 43 15 65 15 22 0 51 7 65 15 14 8 48 14 76 15
28 0 71 7 94 15 23 8 75 15 114 15 39 1 98 7 131 14 87 20 576 20 665 1z"/>
<path d="M4630 10130 c-36 -4 -108 -8 -161 -9 -57 -1 -114 -7 -139 -16 -23 -8
-64 -15 -90 -15 -26 0 -64 -7 -83 -15 -20 -8 -53 -15 -74 -15 -21 -1 -49 -7
-63 -15 -14 -8 -41 -15 -60 -15 -19 0 -44 -7 -54 -15 -11 -8 -32 -15 -46 -15
-14 0 -35 -7 -46 -15 -10 -8 -30 -15 -44 -15 -14 0 -34 -7 -44 -15 -11 -8 -32
-15 -47 -15 -14 0 -32 -7 -39 -15 -7 -8 -23 -15 -35 -15 -12 0 -28 -7 -35 -15
-7 -8 -23 -15 -35 -15 -12 0 -28 -7 -35 -15 -7 -8 -21 -15 -32 -15 -11 0 -26
-7 -34 -15 -9 -8 -24 -15 -33 -15 -10 0 -24 -7 -31 -15 -7 -8 -20 -15 -30 -15
-10 0 -20 -7 -24 -15 -3 -8 -14 -15 -24 -15 -11 0 -25 -7 -32 -15 -7 -8 -18
-15 -26 -15 -7 0 -19 -6 -26 -13 -7 -6 -31 -21 -53 -32 -22 -11 -43 -24 -46
-28 -8 -11 -47 -34 -71 -43 -10 -3 -18 -10 -18 -15 0 -8 -40 -33 -72 -45 -10
-3 -18 -13 -18 -20 0 -8 -5 -14 -10 -14 -14 0 -110 -72 -110 -82 0 -4 -6 -8
-14 -8 -8 0 -16 -4 -18 -8 -1 -5 -39 -39 -83 -77 -97 -83 -246 -234 -288 -292
-17 -24 -34 -43 -39 -43 -4 0 -8 -7 -8 -15 0 -8 -7 -15 -15 -15 -8 0 -15 -6
-15 -14 0 -8 -7 -16 -15 -20 -8 -3 -15 -11 -15 -18 0 -8 -13 -28 -30 -46 -17
-18 -30 -36 -30 -39 0 -3 -13 -22 -30 -43 -16 -21 -30 -43 -30 -49 0 -6 -5
-11 -10 -11 -6 0 -15 -10 -20 -22 -6 -13 -19 -36 -30 -53 -11 -16 -24 -39 -30
-50 -6 -11 -19 -33 -30 -50 -11 -16 -22 -37 -26 -45 -3 -8 -9 -22 -14 -30 -26
-45 -80 -158 -80 -167 0 -6 -7 -16 -15 -23 -8 -7 -15 -23 -15 -35 0 -12 -7
-28 -15 -35 -8 -7 -15 -22 -15 -34 0 -12 -7 -31 -15 -42 -8 -10 -15 -28 -15
-40 0 -11 -7 -29 -15 -40 -8 -10 -15 -30 -15 -44 0 -14 -7 -34 -15 -44 -8 -11
-15 -34 -15 -50 0 -17 -7 -40 -15 -50 -8 -11 -15 -36 -15 -55 0 -20 -7 -45
-15 -55 -8 -11 -15 -40 -15 -65 -1 -25 -7 -57 -15 -71 -8 -14 -14 -50 -15 -81
0 -30 -6 -75 -14 -100 -38 -117 -38 -761 0 -878 8 -25 14 -70 14 -100 1 -31 7
-67 15 -81 8 -14 14 -46 15 -71 0 -25 7 -54 15 -65 8 -10 15 -35 15 -55 0 -19
7 -44 15 -55 8 -10 15 -33 15 -50 0 -16 7 -39 15 -50 8 -10 15 -30 15 -44 0
-14 7 -34 15 -44 8 -11 15 -29 15 -40 0 -12 7 -30 15 -40 8 -11 15 -30 15 -42
0 -12 7 -27 15 -34 8 -7 15 -23 15 -35 0 -12 7 -28 15 -35 8 -7 15 -17 15 -23
0 -9 54 -122 80 -167 5 -8 11 -22 14 -30 4 -8 15 -28 26 -45 11 -16 24 -39 30
-50 6 -11 19 -33 30 -50 11 -16 24 -40 30 -52 5 -13 14 -23 20 -23 5 0 10 -5
10 -11 0 -6 13 -28 30 -49 17 -21 30 -40 30 -43 0 -3 14 -21 30 -39 17 -18 30
-38 30 -46 0 -7 7 -15 15 -18 8 -4 15 -12 15 -20 0 -8 7 -14 15 -14 8 0 15 -7
15 -15 0 -8 4 -15 8 -15 5 0 22 -19 39 -42 44 -61 183 -203 283 -288 47 -40
87 -77 88 -81 2 -5 10 -9 18 -9 8 0 14 -4 14 -8 0 -10 96 -82 110 -82 5 0 10
-6 10 -14 0 -7 8 -17 18 -20 32 -12 72 -37 72 -45 0 -5 8 -12 18 -15 24 -9 63
-32 71 -43 3 -4 28 -19 54 -33 70 -36 87 -46 100 -59 6 -6 19 -11 29 -11 10 0
21 -7 24 -15 4 -8 14 -15 24 -15 10 0 23 -7 30 -15 7 -8 21 -15 31 -15 9 0 24
-7 33 -15 8 -8 23 -15 34 -15 11 0 25 -7 32 -15 7 -8 23 -15 35 -15 12 0 28
-7 35 -15 7 -8 23 -15 35 -15 12 0 28 -7 35 -15 7 -8 25 -15 39 -15 15 0 36
-7 47 -15 10 -8 31 -15 45 -15 14 0 34 -7 45 -15 10 -8 31 -15 45 -15 14 0 34
-7 45 -15 10 -8 37 -15 59 -15 22 0 49 -7 59 -15 11 -8 37 -15 58 -15 21 0 55
-7 75 -15 19 -8 57 -15 82 -15 26 0 67 -6 92 -14 115 -37 763 -37 878 0 25 8
66 14 92 14 25 0 63 7 82 15 20 8 54 15 75 15 21 0 47 7 58 15 10 8 38 15 60
15 24 0 47 6 54 15 7 8 27 15 44 15 17 0 40 7 50 15 11 8 31 15 45 15 14 0 35
7 45 15 11 8 32 15 47 15 14 0 32 7 39 15 7 8 23 15 35 15 12 0 28 7 35 15 7
8 23 15 35 15 12 0 28 7 35 15 7 8 21 15 32 15 11 0 26 7 34 15 9 8 24 15 33
15 10 0 24 7 31 15 7 8 20 15 30 15 10 0 20 7 24 15 3 8 14 15 24 15 10 0 23
5 29 11 13 13 30 23 100 59 26 14 51 29 54 33 8 11 47 34 72 43 9 3 17 10 17
15 0 8 40 33 73 45 9 3 17 13 17 20 0 8 5 14 10 14 14 0 110 72 110 82 0 4 6
8 14 8 8 0 16 4 18 9 2 4 41 41 88 81 100 85 239 227 283 288 17 23 34 42 39
42 4 0 8 7 8 15 0 8 7 15 15 15 8 0 15 6 15 14 0 8 7 16 15 20 8 3 15 11 15
18 0 8 13 28 30 46 16 18 30 36 30 39 0 3 14 22 30 43 17 21 30 42 30 48 0 5
7 12 15 16 8 3 15 15 15 26 0 11 5 20 10 20 6 0 15 10 21 23 15 33 35 67 48
80 6 6 11 19 11 29 0 10 7 21 15 24 8 4 15 14 15 24 0 11 4 21 9 24 11 7 51
88 51 103 0 6 7 16 15 23 8 7 15 20 15 30 0 10 7 23 15 30 8 7 15 23 15 35 0
12 7 28 15 35 8 7 15 22 15 34 0 12 7 31 15 42 8 10 15 28 15 40 0 11 7 29 15
40 8 10 15 30 15 44 0 14 7 34 15 44 8 11 15 34 15 50 0 17 7 40 15 50 8 11
15 36 15 55 0 20 7 45 15 55 8 11 15 40 15 65 1 25 7 57 15 71 8 14 14 50 15
81 0 31 6 74 13 95 14 39 31 286 31 444 0 158 -17 405 -31 444 -7 21 -13 64
-13 95 -1 31 -7 67 -15 81 -8 14 -14 46 -15 71 0 25 -7 54 -15 65 -8 10 -15
35 -15 55 0 19 -7 44 -15 55 -8 10 -15 33 -15 50 0 16 -7 39 -15 50 -8 10 -15
30 -15 44 0 14 -7 34 -15 44 -8 11 -15 29 -15 40 0 12 -7 30 -15 40 -8 11 -15
30 -15 42 0 12 -7 27 -15 34 -8 7 -15 23 -15 35 0 12 -7 28 -15 35 -8 7 -15
17 -15 23 0 15 -71 156 -81 163 -5 3 -9 13 -9 24 0 10 -7 20 -15 24 -8 3 -15
14 -15 24 0 10 -5 23 -11 29 -13 13 -33 47 -48 81 -6 12 -15 22 -21 22 -5 0
-10 9 -10 20 0 11 -7 23 -15 26 -8 4 -15 11 -15 16 0 6 -13 27 -30 48 -16 21
-30 40 -30 43 0 3 -13 21 -30 39 -16 18 -30 38 -30 46 0 7 -7 15 -15 18 -8 4
-15 12 -15 20 0 8 -7 14 -15 14 -8 0 -15 7 -15 15 0 8 -4 15 -8 15 -5 0 -22
19 -39 43 -44 60 -183 202 -283 287 -47 40 -86 77 -88 81 -2 5 -10 9 -18 9 -8
0 -14 4 -14 8 0 10 -96 82 -110 82 -5 0 -10 6 -10 14 0 7 -8 17 -17 20 -33 12
-73 37 -73 45 0 5 -8 12 -17 15 -25 9 -64 32 -72 43 -3 4 -28 19 -54 33 -70
36 -87 46 -100 59 -6 6 -19 11 -29 11 -10 0 -21 7 -24 15 -4 8 -14 15 -24 15
-10 0 -23 7 -30 15 -7 8 -21 15 -31 15 -9 0 -24 7 -33 15 -8 8 -23 15 -34 15
-11 0 -25 7 -32 15 -7 8 -23 15 -35 15 -12 0 -28 7 -35 15 -7 8 -23 15 -35 15
-12 0 -28 7 -35 15 -7 8 -25 15 -39 15 -15 0 -36 7 -47 15 -10 8 -30 15 -44
15 -14 0 -34 7 -44 15 -11 8 -32 15 -46 15 -14 0 -35 7 -46 15 -10 8 -35 15
-54 15 -19 0 -46 7 -60 15 -14 8 -42 14 -63 15 -21 0 -54 7 -74 15 -19 8 -57
15 -84 15 -26 0 -60 5 -76 12 -47 19 -494 41 -593 28z m533 -496 c22 -8 63
-14 91 -14 28 -1 62 -7 76 -15 14 -8 43 -15 65 -15 22 0 49 -7 59 -15 11 -8
34 -15 51 -15 17 0 40 -7 51 -15 10 -8 31 -15 45 -15 14 0 34 -7 45 -15 10 -8
31 -15 45 -15 15 0 32 -7 39 -15 7 -8 23 -15 35 -15 12 0 28 -7 35 -15 7 -8
23 -15 35 -15 12 0 28 -7 35 -15 7 -8 21 -15 32 -15 11 0 26 -7 34 -15 9 -8
24 -15 34 -15 10 0 20 -7 24 -15 3 -8 14 -15 24 -15 11 0 25 -7 32 -15 7 -8
21 -15 32 -15 10 0 21 -7 24 -15 4 -8 12 -15 19 -15 7 0 18 -7 25 -15 7 -8 21
-15 31 -15 11 0 19 -5 19 -10 0 -6 10 -15 23 -20 30 -13 54 -30 91 -62 17 -16
36 -28 44 -28 7 0 15 -7 18 -15 4 -8 12 -15 20 -15 8 0 14 -4 14 -8 0 -4 23
-26 52 -47 29 -22 72 -59 96 -82 24 -24 47 -43 53 -43 5 0 9 -7 9 -15 0 -8 7
-15 15 -15 8 0 15 -7 15 -15 0 -8 7 -15 15 -15 8 0 15 -7 15 -15 0 -8 7 -15
15 -15 8 0 15 -4 15 -10 0 -5 15 -24 33 -42 18 -18 48 -54 66 -80 19 -27 38
-48 43 -48 4 0 8 -7 8 -15 0 -8 4 -15 10 -15 5 0 21 -20 36 -45 14 -25 29 -45
34 -45 4 0 11 -8 14 -17 13 -35 37 -73 47 -73 5 0 9 -6 9 -14 0 -7 7 -19 15
-26 8 -7 15 -21 15 -31 0 -11 5 -19 11 -19 5 0 15 -13 20 -30 6 -16 15 -30 20
-30 5 0 9 -8 9 -19 0 -10 7 -24 15 -31 8 -7 15 -20 15 -30 0 -10 7 -23 15 -30
8 -7 15 -20 15 -30 0 -10 7 -23 15 -30 8 -7 15 -23 15 -35 0 -12 7 -28 15 -35
8 -7 15 -22 15 -34 0 -11 7 -30 15 -40 8 -11 15 -29 15 -40 0 -12 7 -30 15
-40 8 -11 15 -32 15 -46 0 -14 7 -35 15 -46 8 -10 15 -35 15 -54 0 -19 7 -44
15 -54 8 -11 15 -38 15 -60 1 -23 7 -52 15 -66 8 -14 14 -45 15 -70 0 -25 7
-67 16 -95 24 -74 24 -716 0 -790 -9 -27 -16 -70 -16 -95 -1 -25 -7 -56 -15
-70 -8 -14 -14 -43 -15 -66 0 -22 -7 -49 -15 -60 -8 -10 -15 -35 -15 -54 0
-19 -7 -44 -15 -54 -8 -11 -15 -32 -15 -46 0 -14 -7 -35 -15 -46 -8 -10 -15
-28 -15 -40 0 -11 -7 -29 -15 -40 -8 -10 -15 -29 -15 -40 0 -12 -7 -27 -15
-34 -8 -7 -15 -23 -15 -35 0 -12 -7 -28 -15 -35 -8 -7 -15 -20 -15 -30 0 -10
-7 -23 -15 -30 -8 -7 -15 -20 -15 -30 0 -10 -7 -23 -15 -30 -8 -7 -15 -21 -15
-31 0 -11 -4 -19 -9 -19 -5 0 -14 -13 -20 -30 -5 -16 -15 -30 -20 -30 -6 0
-11 -8 -11 -19 0 -10 -7 -24 -15 -31 -8 -7 -15 -19 -15 -26 0 -8 -4 -14 -9
-14 -10 0 -34 -38 -47 -72 -3 -10 -10 -18 -14 -18 -5 0 -20 -20 -34 -45 -15
-25 -31 -45 -36 -45 -6 0 -10 -7 -10 -15 0 -8 -4 -15 -8 -15 -5 0 -24 -21 -43
-47 -18 -27 -55 -70 -81 -96 -27 -26 -48 -52 -48 -57 0 -6 -7 -10 -15 -10 -8
0 -15 -7 -15 -15 0 -8 -7 -15 -15 -15 -8 0 -15 -7 -15 -15 0 -8 -4 -15 -9 -15
-5 0 -31 -21 -57 -46 -27 -25 -70 -62 -96 -82 -27 -20 -48 -40 -48 -44 0 -4
-6 -8 -14 -8 -8 0 -16 -7 -20 -15 -3 -8 -11 -15 -18 -15 -8 0 -27 -12 -44 -27
-37 -33 -61 -50 -91 -63 -13 -5 -23 -14 -23 -20 0 -5 -8 -10 -19 -10 -10 0
-24 -7 -31 -15 -7 -8 -18 -15 -25 -15 -7 0 -15 -7 -19 -15 -3 -8 -14 -15 -24
-15 -11 0 -25 -7 -32 -15 -7 -8 -21 -15 -32 -15 -10 0 -21 -7 -24 -15 -4 -8
-14 -15 -24 -15 -10 0 -25 -7 -34 -15 -8 -8 -23 -15 -34 -15 -11 0 -25 -7 -32
-15 -7 -8 -23 -15 -35 -15 -12 0 -28 -7 -35 -15 -7 -8 -23 -15 -35 -15 -12 0
-28 -7 -35 -15 -7 -8 -24 -15 -39 -15 -14 0 -35 -7 -45 -15 -11 -8 -31 -15
-45 -15 -14 0 -35 -7 -45 -15 -11 -8 -34 -15 -50 -15 -17 -1 -42 -7 -56 -15
-14 -8 -39 -14 -56 -15 -17 0 -48 -7 -67 -15 -20 -8 -56 -15 -80 -15 -25 0
-64 -7 -88 -16 -65 -24 -713 -24 -778 0 -24 9 -63 16 -88 16 -24 0 -60 7 -80
15 -19 8 -50 15 -67 15 -17 1 -42 7 -56 15 -14 8 -39 14 -56 15 -16 0 -39 7
-50 15 -10 8 -31 15 -45 15 -14 0 -34 7 -45 15 -10 8 -31 15 -45 15 -15 0 -32
7 -39 15 -7 8 -23 15 -35 15 -12 0 -28 7 -35 15 -7 8 -23 15 -35 15 -12 0 -28
7 -35 15 -7 8 -21 15 -32 15 -11 0 -26 7 -34 15 -9 8 -24 15 -34 15 -10 0 -20
7 -24 15 -3 8 -14 15 -24 15 -11 0 -25 7 -32 15 -7 8 -21 15 -32 15 -10 0 -21
7 -24 15 -4 8 -12 15 -19 15 -7 0 -18 7 -25 15 -7 8 -21 15 -31 15 -11 0 -19
5 -19 10 0 6 -10 15 -22 20 -31 13 -55 30 -92 63 -17 15 -36 27 -44 27 -7 0
-15 7 -18 15 -4 8 -12 15 -20 15 -8 0 -14 4 -14 8 0 4 -23 26 -52 47 -29 22
-72 59 -96 83 -24 23 -47 42 -53 42 -5 0 -9 7 -9 15 0 8 -7 15 -15 15 -8 0
-15 7 -15 15 0 8 -7 15 -15 15 -8 0 -15 7 -15 15 0 8 -7 15 -15 15 -8 0 -15 4
-15 10 0 5 -15 24 -33 42 -18 18 -48 54 -66 81 -19 26 -38 47 -43 47 -4 0 -8
7 -8 15 0 8 -4 15 -10 15 -5 0 -21 20 -36 45 -14 25 -29 45 -34 45 -4 0 -11 8
-14 18 -13 34 -37 72 -47 72 -5 0 -9 6 -9 14 0 7 -7 19 -15 26 -8 7 -15 20
-15 30 0 10 -7 20 -15 24 -8 3 -15 12 -15 19 0 8 -7 20 -15 27 -8 7 -15 20
-15 30 0 10 -7 23 -15 30 -8 7 -15 20 -15 30 0 10 -7 23 -15 30 -8 7 -15 20
-15 30 0 10 -7 23 -15 30 -8 7 -15 23 -15 35 0 12 -7 28 -15 35 -8 7 -15 22
-15 34 0 11 -7 30 -15 40 -8 11 -15 29 -15 40 0 12 -7 30 -15 40 -8 11 -15 32
-15 46 0 14 -7 35 -15 46 -8 10 -15 33 -15 49 0 17 -7 41 -15 55 -8 14 -15 43
-15 65 0 22 -7 51 -15 65 -8 14 -14 46 -15 71 0 26 -7 66 -16 90 -24 65 -24
733 0 798 9 24 16 64 16 90 1 25 7 57 15 71 8 14 15 43 15 65 0 22 7 51 15 65
8 14 15 39 15 55 0 17 7 39 15 49 8 11 15 32 15 46 0 14 7 35 15 46 8 10 15
28 15 40 0 11 7 29 15 40 8 10 15 29 15 40 0 12 7 27 15 34 8 7 15 23 15 35 0
12 7 28 15 35 8 7 15 20 15 30 0 10 7 23 15 30 8 7 15 20 15 30 0 10 7 23 15
30 8 7 15 20 15 30 0 10 7 23 15 30 8 7 15 19 15 27 0 7 7 16 15 19 8 4 15 14
15 24 0 10 7 23 15 30 8 7 15 19 15 26 0 8 5 14 10 14 6 0 15 10 20 23 15 33
33 61 48 70 6 4 12 14 12 20 0 7 14 27 30 45 17 18 30 37 30 43 0 5 4 9 8 9 5
0 24 21 43 48 18 26 48 62 66 80 18 18 33 37 33 42 0 6 7 10 15 10 8 0 15 7
15 15 0 8 7 15 15 15 8 0 15 7 15 15 0 8 7 15 15 15 8 0 15 7 15 15 0 8 4 15
9 15 5 0 33 23 62 51 30 28 73 65 97 82 23 16 42 34 42 39 0 4 6 8 14 8 8 0
16 7 20 15 3 8 11 15 18 15 8 0 27 12 44 28 37 32 61 49 92 62 12 5 22 14 22
20 0 5 8 10 19 10 10 0 24 7 31 15 7 8 18 15 25 15 7 0 15 7 19 15 3 8 14 15
24 15 11 0 25 7 32 15 7 8 21 15 32 15 10 0 21 7 24 15 4 8 14 15 24 15 10 0
25 7 34 15 8 8 23 15 34 15 11 0 25 7 32 15 7 8 23 15 35 15 12 0 28 7 35 15
7 8 23 15 35 15 12 0 28 7 35 15 7 8 24 15 39 15 14 0 35 7 45 15 11 8 31 15
45 15 14 0 35 7 45 15 11 8 34 15 51 15 17 0 40 7 51 15 10 8 37 15 59 15 22
0 51 7 65 15 14 8 48 14 77 15 28 0 64 5 80 12 69 29 714 31 796 2z"/>
<path d="M4605 8484 c-27 -7 -73 -14 -101 -14 -28 0 -59 -6 -70 -15 -10 -8
-35 -15 -54 -15 -19 0 -44 -7 -54 -15 -11 -8 -32 -15 -47 -15 -14 0 -32 -7
-39 -15 -7 -8 -23 -15 -35 -15 -12 0 -28 -7 -35 -15 -7 -8 -20 -15 -30 -15
-10 0 -23 -7 -30 -15 -7 -8 -20 -15 -29 -15 -9 0 -22 -5 -28 -11 -13 -13 -47
-33 -80 -48 -13 -6 -23 -15 -23 -21 0 -5 -5 -10 -11 -10 -6 0 -28 -13 -49 -30
-21 -16 -43 -30 -49 -30 -6 0 -11 -7 -11 -15 0 -8 -4 -15 -9 -15 -13 0 -171
-158 -171 -171 0 -5 -7 -9 -15 -9 -8 0 -15 -6 -15 -14 0 -8 -7 -16 -15 -20 -8
-3 -15 -11 -15 -18 0 -8 -12 -27 -27 -44 -16 -17 -38 -51 -51 -77 -13 -26 -27
-49 -33 -52 -5 -4 -9 -14 -9 -25 0 -10 -7 -20 -15 -24 -8 -3 -15 -17 -15 -31
0 -14 -4 -25 -10 -25 -5 0 -14 -18 -20 -40 -6 -21 -15 -42 -20 -45 -6 -3 -10
-18 -10 -33 0 -15 -7 -36 -15 -46 -8 -11 -15 -34 -15 -50 -1 -17 -7 -42 -15
-56 -8 -14 -15 -47 -15 -75 0 -27 -7 -75 -15 -105 -9 -32 -15 -99 -15 -160 0
-61 6 -128 15 -160 8 -30 15 -77 15 -105 0 -27 7 -61 15 -75 8 -14 14 -39 15
-56 0 -16 7 -39 15 -50 8 -10 15 -31 15 -46 0 -15 4 -30 10 -33 5 -3 14 -24
20 -45 6 -22 15 -40 20 -40 6 0 10 -11 10 -25 0 -14 7 -28 15 -31 8 -4 15 -14
15 -24 0 -11 4 -21 9 -24 5 -3 19 -25 31 -48 12 -24 27 -48 33 -53 15 -13 34
-43 47 -72 5 -13 14 -23 20 -23 5 0 10 -7 10 -15 0 -8 7 -15 15 -15 8 0 15 -4
15 -9 0 -13 158 -171 171 -171 5 0 9 -7 9 -15 0 -8 5 -15 11 -15 6 0 28 -13
49 -30 21 -16 43 -30 49 -30 6 0 11 -5 11 -10 0 -6 10 -15 23 -21 33 -15 67
-35 80 -48 6 -6 19 -11 28 -11 9 0 22 -7 29 -15 7 -8 20 -15 30 -15 10 0 23
-7 30 -15 7 -8 23 -15 35 -15 12 0 28 -7 35 -15 7 -8 25 -15 39 -15 15 0 36
-7 47 -15 10 -8 35 -15 54 -15 19 0 44 -7 54 -15 11 -9 42 -15 70 -15 28 -1
78 -7 111 -15 77 -19 233 -19 310 0 33 8 83 14 111 15 28 0 59 6 70 15 10 8
35 15 54 15 19 0 44 7 54 15 11 8 32 15 47 15 14 0 32 7 39 15 7 8 23 15 35
15 12 0 28 7 35 15 7 8 20 15 30 15 10 0 23 7 30 15 7 8 20 15 29 15 9 0 22 5
28 11 13 13 47 33 81 48 12 6 22 15 22 21 0 5 5 10 11 10 6 0 28 14 49 30 21
17 43 30 49 30 6 0 11 7 11 15 0 8 4 15 9 15 13 0 171 158 171 171 0 5 7 9 15
9 8 0 15 7 15 15 0 8 5 15 10 15 6 0 15 10 20 23 13 29 32 59 47 72 6 5 21 29
33 53 12 23 26 45 31 48 5 3 9 13 9 24 0 10 7 20 15 24 8 3 15 16 15 29 0 14
7 30 15 37 8 7 15 20 15 29 0 10 7 26 15 37 8 10 15 31 15 45 0 14 7 34 15 45
8 10 15 33 15 49 0 17 7 41 15 55 8 14 15 48 15 75 0 28 7 77 15 110 8 33 15
103 15 155 0 52 -7 122 -15 155 -8 33 -15 83 -15 110 0 28 -7 61 -15 75 -8 14
-15 39 -15 55 0 17 -7 39 -15 49 -8 11 -15 31 -15 45 0 14 -7 35 -15 45 -8 11
-15 27 -15 37 0 9 -7 22 -15 29 -8 7 -15 23 -15 37 0 13 -7 26 -15 29 -8 4
-15 14 -15 24 0 11 -4 21 -9 24 -5 3 -19 25 -31 48 -12 24 -35 59 -51 79 -16
20 -29 42 -29 48 0 7 -7 14 -15 17 -8 4 -15 12 -15 20 0 8 -7 14 -15 14 -8 0
-15 4 -15 9 0 6 -36 46 -81 90 -44 45 -84 81 -90 81 -5 0 -9 7 -9 15 0 8 -5
15 -11 15 -6 0 -28 14 -49 30 -21 17 -43 30 -49 30 -6 0 -11 5 -11 10 0 6 -10
15 -22 21 -34 15 -68 35 -81 48 -6 6 -19 11 -28 11 -9 0 -22 7 -29 15 -7 8
-20 15 -30 15 -10 0 -23 7 -30 15 -7 8 -23 15 -35 15 -12 0 -28 7 -35 15 -7 8
-25 15 -39 15 -15 0 -36 7 -47 15 -10 8 -35 15 -54 15 -19 0 -44 7 -54 15 -11
9 -42 15 -70 15 -28 0 -76 7 -106 15 -70 19 -257 18 -325 -1z"/>
</g>
</svg>
